<mxfile host="Electron" modified="2024-01-17T23:49:18.079Z" agent="Mozilla/5.0 (Windows NT 10.0; Win64; x64) AppleWebKit/537.36 (KHTML, like Gecko) draw.io/22.0.2 Chrome/114.0.5735.289 Electron/25.8.4 Safari/537.36" etag="1PlUVL6QYfX_KYIr2IKs" version="22.0.2" type="device">
  <diagram name="第 1 页" id="SQDjL-SOwaue0lIt5a_H">
    <mxGraphModel dx="1418" dy="828" grid="1" gridSize="10" guides="1" tooltips="1" connect="1" arrows="1" fold="1" page="1" pageScale="1" pageWidth="827" pageHeight="1169" math="0" shadow="0">
      <root>
        <mxCell id="0" />
        <mxCell id="1" parent="0" />
        <mxCell id="X4WSiCKo_hcngLiKr_Ob-8" style="rounded=0;orthogonalLoop=1;jettySize=auto;html=1;exitX=0.5;exitY=1;exitDx=0;exitDy=0;entryX=0.5;entryY=0;entryDx=0;entryDy=0;" parent="1" source="X4WSiCKo_hcngLiKr_Ob-1" target="X4WSiCKo_hcngLiKr_Ob-6" edge="1">
          <mxGeometry relative="1" as="geometry" />
        </mxCell>
        <mxCell id="X4WSiCKo_hcngLiKr_Ob-9" style="edgeStyle=none;shape=connector;rounded=0;orthogonalLoop=1;jettySize=auto;html=1;exitX=0.5;exitY=1;exitDx=0;exitDy=0;entryX=0.5;entryY=0;entryDx=0;entryDy=0;labelBackgroundColor=default;strokeColor=default;align=center;verticalAlign=middle;fontFamily=Helvetica;fontSize=11;fontColor=default;endArrow=classic;" parent="1" source="X4WSiCKo_hcngLiKr_Ob-1" target="X4WSiCKo_hcngLiKr_Ob-5" edge="1">
          <mxGeometry relative="1" as="geometry" />
        </mxCell>
        <mxCell id="X4WSiCKo_hcngLiKr_Ob-1" value="P" style="ellipse;whiteSpace=wrap;html=1;aspect=fixed;" parent="1" vertex="1">
          <mxGeometry x="120" y="80" width="40" height="40" as="geometry" />
        </mxCell>
        <mxCell id="X4WSiCKo_hcngLiKr_Ob-2" value="&lt;font style=&quot;font-size: 13px;&quot;&gt;记被删除节点为N，其父节点为P，兄弟为B，兄弟左儿子BL、兄弟右儿子BR。白色节点可为红色或黑色两种情况。&lt;/font&gt;" style="text;html=1;align=center;verticalAlign=middle;resizable=0;points=[];autosize=1;strokeColor=none;fillColor=none;" parent="1" vertex="1">
          <mxGeometry x="80" y="10" width="680" height="30" as="geometry" />
        </mxCell>
        <mxCell id="X4WSiCKo_hcngLiKr_Ob-3" value="" style="endArrow=none;dashed=1;html=1;strokeWidth=2;rounded=0;fillColor=#dae8fc;strokeColor=#6c8ebf;" parent="1" edge="1">
          <mxGeometry width="50" height="50" relative="1" as="geometry">
            <mxPoint x="80" y="40" as="sourcePoint" />
            <mxPoint x="760" y="40" as="targetPoint" />
          </mxGeometry>
        </mxCell>
        <mxCell id="X4WSiCKo_hcngLiKr_Ob-4" value="&lt;font style=&quot;font-size: 16px;&quot;&gt;第Ⅰ点：P可为红/黑色，N可为P左/右子节点，所以有4种情况。&lt;/font&gt;" style="text;html=1;align=center;verticalAlign=middle;resizable=0;points=[];autosize=1;strokeColor=none;fillColor=none;" parent="1" vertex="1">
          <mxGeometry x="80" y="40" width="470" height="30" as="geometry" />
        </mxCell>
        <mxCell id="X4WSiCKo_hcngLiKr_Ob-10" style="edgeStyle=none;shape=connector;rounded=0;orthogonalLoop=1;jettySize=auto;html=1;exitX=0.5;exitY=1;exitDx=0;exitDy=0;entryX=0.5;entryY=0;entryDx=0;entryDy=0;labelBackgroundColor=default;strokeColor=default;align=center;verticalAlign=middle;fontFamily=Helvetica;fontSize=11;fontColor=default;endArrow=classic;" parent="1" source="X4WSiCKo_hcngLiKr_Ob-5" target="X4WSiCKo_hcngLiKr_Ob-7" edge="1">
          <mxGeometry relative="1" as="geometry" />
        </mxCell>
        <mxCell id="X4WSiCKo_hcngLiKr_Ob-5" value="B" style="ellipse;whiteSpace=wrap;html=1;aspect=fixed;fillColor=#000000;strokeColor=none;fontColor=#FFFFFF;" parent="1" vertex="1">
          <mxGeometry x="160" y="160" width="40" height="40" as="geometry" />
        </mxCell>
        <mxCell id="X4WSiCKo_hcngLiKr_Ob-6" value="&lt;font color=&quot;#ffffff&quot;&gt;N&lt;/font&gt;" style="ellipse;whiteSpace=wrap;html=1;aspect=fixed;fillColor=#000000;strokeColor=none;fontColor=#3333FF;" parent="1" vertex="1">
          <mxGeometry x="80" y="160" width="40" height="40" as="geometry" />
        </mxCell>
        <mxCell id="X4WSiCKo_hcngLiKr_Ob-7" value="BL" style="ellipse;whiteSpace=wrap;html=1;aspect=fixed;fillColor=#FF0000;strokeColor=none;fontColor=#FFFFFF;" parent="1" vertex="1">
          <mxGeometry x="120" y="240" width="40" height="40" as="geometry" />
        </mxCell>
        <mxCell id="X4WSiCKo_hcngLiKr_Ob-12" style="edgeStyle=none;shape=connector;rounded=0;orthogonalLoop=1;jettySize=auto;html=1;exitX=0.5;exitY=1;exitDx=0;exitDy=0;entryX=0.5;entryY=0;entryDx=0;entryDy=0;labelBackgroundColor=default;strokeColor=default;align=center;verticalAlign=middle;fontFamily=Helvetica;fontSize=11;fontColor=default;endArrow=classic;" parent="1" source="X4WSiCKo_hcngLiKr_Ob-13" target="X4WSiCKo_hcngLiKr_Ob-15" edge="1">
          <mxGeometry relative="1" as="geometry" />
        </mxCell>
        <mxCell id="X4WSiCKo_hcngLiKr_Ob-13" value="P" style="ellipse;whiteSpace=wrap;html=1;aspect=fixed;" parent="1" vertex="1">
          <mxGeometry x="240" y="80" width="40" height="40" as="geometry" />
        </mxCell>
        <mxCell id="X4WSiCKo_hcngLiKr_Ob-14" style="edgeStyle=none;shape=connector;rounded=0;orthogonalLoop=1;jettySize=auto;html=1;exitX=0.5;exitY=1;exitDx=0;exitDy=0;entryX=0.5;entryY=0;entryDx=0;entryDy=0;labelBackgroundColor=default;strokeColor=default;align=center;verticalAlign=middle;fontFamily=Helvetica;fontSize=11;fontColor=default;endArrow=classic;" parent="1" source="X4WSiCKo_hcngLiKr_Ob-15" target="X4WSiCKo_hcngLiKr_Ob-17" edge="1">
          <mxGeometry relative="1" as="geometry" />
        </mxCell>
        <mxCell id="X4WSiCKo_hcngLiKr_Ob-15" value="B" style="ellipse;whiteSpace=wrap;html=1;aspect=fixed;fillColor=#000000;strokeColor=none;fontColor=#FFFFFF;" parent="1" vertex="1">
          <mxGeometry x="280" y="160" width="40" height="40" as="geometry" />
        </mxCell>
        <mxCell id="X4WSiCKo_hcngLiKr_Ob-17" value="BL" style="ellipse;whiteSpace=wrap;html=1;aspect=fixed;fillColor=#FF0000;strokeColor=none;fontColor=#FFFFFF;" parent="1" vertex="1">
          <mxGeometry x="240" y="240" width="40" height="40" as="geometry" />
        </mxCell>
        <mxCell id="X4WSiCKo_hcngLiKr_Ob-23" style="edgeStyle=none;shape=connector;rounded=0;orthogonalLoop=1;jettySize=auto;html=1;exitX=0.5;exitY=1;exitDx=0;exitDy=0;entryX=0.5;entryY=0;entryDx=0;entryDy=0;labelBackgroundColor=default;strokeColor=default;align=center;verticalAlign=middle;fontFamily=Helvetica;fontSize=11;fontColor=default;endArrow=classic;" parent="1" source="X4WSiCKo_hcngLiKr_Ob-19" target="X4WSiCKo_hcngLiKr_Ob-22" edge="1">
          <mxGeometry relative="1" as="geometry" />
        </mxCell>
        <mxCell id="X4WSiCKo_hcngLiKr_Ob-19" value="P" style="ellipse;whiteSpace=wrap;html=1;aspect=fixed;" parent="1" vertex="1">
          <mxGeometry x="360" y="80" width="40" height="40" as="geometry" />
        </mxCell>
        <mxCell id="X4WSiCKo_hcngLiKr_Ob-21" value="B" style="ellipse;whiteSpace=wrap;html=1;aspect=fixed;fillColor=#000000;strokeColor=none;fontColor=#FFFFFF;" parent="1" vertex="1">
          <mxGeometry x="440" y="240" width="40" height="40" as="geometry" />
        </mxCell>
        <mxCell id="X4WSiCKo_hcngLiKr_Ob-30" style="edgeStyle=none;shape=connector;rounded=0;orthogonalLoop=1;jettySize=auto;html=1;exitX=0.5;exitY=1;exitDx=0;exitDy=0;entryX=0.5;entryY=0;entryDx=0;entryDy=0;labelBackgroundColor=default;strokeColor=default;align=center;verticalAlign=middle;fontFamily=Helvetica;fontSize=11;fontColor=default;endArrow=classic;" parent="1" source="X4WSiCKo_hcngLiKr_Ob-22" target="X4WSiCKo_hcngLiKr_Ob-21" edge="1">
          <mxGeometry relative="1" as="geometry" />
        </mxCell>
        <mxCell id="X4WSiCKo_hcngLiKr_Ob-22" value="BL" style="ellipse;whiteSpace=wrap;html=1;aspect=fixed;fillColor=#FF0000;strokeColor=none;fontColor=#FFFFFF;" parent="1" vertex="1">
          <mxGeometry x="400" y="160" width="40" height="40" as="geometry" />
        </mxCell>
        <mxCell id="X4WSiCKo_hcngLiKr_Ob-37" style="edgeStyle=none;shape=connector;rounded=0;orthogonalLoop=1;jettySize=auto;html=1;exitX=0.5;exitY=1;exitDx=0;exitDy=0;entryX=0.5;entryY=0;entryDx=0;entryDy=0;labelBackgroundColor=default;strokeColor=default;align=center;verticalAlign=middle;fontFamily=Helvetica;fontSize=11;fontColor=default;endArrow=classic;" parent="1" source="X4WSiCKo_hcngLiKr_Ob-32" target="X4WSiCKo_hcngLiKr_Ob-33" edge="1">
          <mxGeometry relative="1" as="geometry" />
        </mxCell>
        <mxCell id="X4WSiCKo_hcngLiKr_Ob-32" value="BL" style="ellipse;whiteSpace=wrap;html=1;aspect=fixed;" parent="1" vertex="1">
          <mxGeometry x="520" y="160" width="40" height="40" as="geometry" />
        </mxCell>
        <mxCell id="X4WSiCKo_hcngLiKr_Ob-33" value="B" style="ellipse;whiteSpace=wrap;html=1;aspect=fixed;fillColor=#000000;strokeColor=none;fontColor=#FFFFFF;" parent="1" vertex="1">
          <mxGeometry x="560" y="240" width="40" height="40" as="geometry" />
        </mxCell>
        <mxCell id="X4WSiCKo_hcngLiKr_Ob-36" style="edgeStyle=none;shape=connector;rounded=0;orthogonalLoop=1;jettySize=auto;html=1;exitX=0.5;exitY=1;exitDx=0;exitDy=0;entryX=0.5;entryY=0;entryDx=0;entryDy=0;labelBackgroundColor=default;strokeColor=default;align=center;verticalAlign=middle;fontFamily=Helvetica;fontSize=11;fontColor=default;endArrow=classic;" parent="1" source="X4WSiCKo_hcngLiKr_Ob-35" target="X4WSiCKo_hcngLiKr_Ob-32" edge="1">
          <mxGeometry relative="1" as="geometry" />
        </mxCell>
        <mxCell id="X4WSiCKo_hcngLiKr_Ob-35" value="P" style="ellipse;whiteSpace=wrap;html=1;aspect=fixed;fillColor=#000000;strokeColor=none;fontColor=#FFFFFF;" parent="1" vertex="1">
          <mxGeometry x="480" y="80" width="40" height="40" as="geometry" />
        </mxCell>
        <mxCell id="X4WSiCKo_hcngLiKr_Ob-38" style="edgeStyle=none;shape=connector;rounded=0;orthogonalLoop=1;jettySize=auto;html=1;exitX=0.5;exitY=1;exitDx=0;exitDy=0;entryX=0.5;entryY=0;entryDx=0;entryDy=0;labelBackgroundColor=default;strokeColor=default;align=center;verticalAlign=middle;fontFamily=Helvetica;fontSize=11;fontColor=default;endArrow=classic;" parent="1" source="X4WSiCKo_hcngLiKr_Ob-39" target="X4WSiCKo_hcngLiKr_Ob-40" edge="1">
          <mxGeometry relative="1" as="geometry" />
        </mxCell>
        <mxCell id="X4WSiCKo_hcngLiKr_Ob-43" style="edgeStyle=none;shape=connector;rounded=0;orthogonalLoop=1;jettySize=auto;html=1;exitX=0.5;exitY=1;exitDx=0;exitDy=0;entryX=0.5;entryY=0;entryDx=0;entryDy=0;labelBackgroundColor=default;strokeColor=default;align=center;verticalAlign=middle;fontFamily=Helvetica;fontSize=11;fontColor=default;endArrow=classic;" parent="1" source="X4WSiCKo_hcngLiKr_Ob-39" target="X4WSiCKo_hcngLiKr_Ob-42" edge="1">
          <mxGeometry relative="1" as="geometry" />
        </mxCell>
        <mxCell id="X4WSiCKo_hcngLiKr_Ob-39" value="BL" style="ellipse;whiteSpace=wrap;html=1;aspect=fixed;" parent="1" vertex="1">
          <mxGeometry x="680" y="120" width="40" height="40" as="geometry" />
        </mxCell>
        <mxCell id="X4WSiCKo_hcngLiKr_Ob-40" value="B" style="ellipse;whiteSpace=wrap;html=1;aspect=fixed;fillColor=#000000;strokeColor=none;fontColor=#FFFFFF;" parent="1" vertex="1">
          <mxGeometry x="720" y="200" width="40" height="40" as="geometry" />
        </mxCell>
        <mxCell id="X4WSiCKo_hcngLiKr_Ob-42" value="P" style="ellipse;whiteSpace=wrap;html=1;aspect=fixed;fillColor=#000000;strokeColor=none;fontColor=#FFFFFF;" parent="1" vertex="1">
          <mxGeometry x="640" y="200" width="40" height="40" as="geometry" />
        </mxCell>
        <mxCell id="X4WSiCKo_hcngLiKr_Ob-45" value="B右旋" style="shape=singleArrow;whiteSpace=wrap;html=1;arrowWidth=0.4;arrowSize=0.4;fontFamily=Helvetica;fontSize=11;fillColor=#dae8fc;strokeColor=none;" parent="1" vertex="1">
          <mxGeometry x="340" y="160" width="40" height="40" as="geometry" />
        </mxCell>
        <mxCell id="X4WSiCKo_hcngLiKr_Ob-46" value="删除N" style="shape=singleArrow;whiteSpace=wrap;html=1;arrowWidth=0.4;arrowSize=0.4;fontFamily=Helvetica;fontSize=11;fillColor=#dae8fc;strokeColor=none;" parent="1" vertex="1">
          <mxGeometry x="220" y="160" width="40" height="40" as="geometry" />
        </mxCell>
        <mxCell id="X4WSiCKo_hcngLiKr_Ob-47" value="" style="shape=singleArrow;whiteSpace=wrap;html=1;arrowWidth=0.4;arrowSize=0.4;fontFamily=Helvetica;fontSize=11;fillColor=#dae8fc;strokeColor=none;" parent="1" vertex="1">
          <mxGeometry x="460" y="160" width="40" height="40" as="geometry" />
        </mxCell>
        <mxCell id="X4WSiCKo_hcngLiKr_Ob-48" value="P左旋" style="shape=singleArrow;whiteSpace=wrap;html=1;arrowWidth=0.4;arrowSize=0.4;fontFamily=Helvetica;fontSize=11;fillColor=#dae8fc;strokeColor=none;" parent="1" vertex="1">
          <mxGeometry x="580" y="160" width="40" height="40" as="geometry" />
        </mxCell>
        <mxCell id="X4WSiCKo_hcngLiKr_Ob-49" value="" style="endArrow=none;dashed=1;html=1;strokeWidth=2;rounded=0;fillColor=#dae8fc;strokeColor=#6c8ebf;" parent="1" edge="1">
          <mxGeometry width="50" height="50" relative="1" as="geometry">
            <mxPoint x="80" y="320" as="sourcePoint" />
            <mxPoint x="760" y="320" as="targetPoint" />
          </mxGeometry>
        </mxCell>
        <mxCell id="X4WSiCKo_hcngLiKr_Ob-51" style="rounded=0;orthogonalLoop=1;jettySize=auto;html=1;exitX=0.5;exitY=1;exitDx=0;exitDy=0;entryX=0.5;entryY=0;entryDx=0;entryDy=0;" parent="1" source="X4WSiCKo_hcngLiKr_Ob-53" target="X4WSiCKo_hcngLiKr_Ob-56" edge="1">
          <mxGeometry relative="1" as="geometry" />
        </mxCell>
        <mxCell id="X4WSiCKo_hcngLiKr_Ob-52" style="edgeStyle=none;shape=connector;rounded=0;orthogonalLoop=1;jettySize=auto;html=1;exitX=0.5;exitY=1;exitDx=0;exitDy=0;entryX=0.5;entryY=0;entryDx=0;entryDy=0;labelBackgroundColor=default;strokeColor=default;align=center;verticalAlign=middle;fontFamily=Helvetica;fontSize=11;fontColor=default;endArrow=classic;" parent="1" source="X4WSiCKo_hcngLiKr_Ob-53" target="X4WSiCKo_hcngLiKr_Ob-55" edge="1">
          <mxGeometry relative="1" as="geometry" />
        </mxCell>
        <mxCell id="X4WSiCKo_hcngLiKr_Ob-53" value="P" style="ellipse;whiteSpace=wrap;html=1;aspect=fixed;" parent="1" vertex="1">
          <mxGeometry x="120" y="360" width="40" height="40" as="geometry" />
        </mxCell>
        <mxCell id="X4WSiCKo_hcngLiKr_Ob-54" style="edgeStyle=none;shape=connector;rounded=0;orthogonalLoop=1;jettySize=auto;html=1;exitX=0.5;exitY=1;exitDx=0;exitDy=0;entryX=0.5;entryY=0;entryDx=0;entryDy=0;labelBackgroundColor=default;strokeColor=default;align=center;verticalAlign=middle;fontFamily=Helvetica;fontSize=11;fontColor=default;endArrow=classic;" parent="1" source="X4WSiCKo_hcngLiKr_Ob-55" target="X4WSiCKo_hcngLiKr_Ob-57" edge="1">
          <mxGeometry relative="1" as="geometry" />
        </mxCell>
        <mxCell id="X4WSiCKo_hcngLiKr_Ob-55" value="B" style="ellipse;whiteSpace=wrap;html=1;aspect=fixed;fillColor=#000000;strokeColor=none;fontColor=#FFFFFF;" parent="1" vertex="1">
          <mxGeometry x="160" y="440" width="40" height="40" as="geometry" />
        </mxCell>
        <mxCell id="X4WSiCKo_hcngLiKr_Ob-56" value="&lt;font color=&quot;#ffffff&quot;&gt;N&lt;/font&gt;" style="ellipse;whiteSpace=wrap;html=1;aspect=fixed;fillColor=#000000;strokeColor=none;fontColor=#3333FF;" parent="1" vertex="1">
          <mxGeometry x="80" y="440" width="40" height="40" as="geometry" />
        </mxCell>
        <mxCell id="X4WSiCKo_hcngLiKr_Ob-57" value="BR" style="ellipse;whiteSpace=wrap;html=1;aspect=fixed;fillColor=#FF0000;strokeColor=none;fontColor=#FFFFFF;" parent="1" vertex="1">
          <mxGeometry x="200" y="520" width="40" height="40" as="geometry" />
        </mxCell>
        <mxCell id="X4WSiCKo_hcngLiKr_Ob-59" style="edgeStyle=none;shape=connector;rounded=0;orthogonalLoop=1;jettySize=auto;html=1;exitX=0.5;exitY=1;exitDx=0;exitDy=0;entryX=0.5;entryY=0;entryDx=0;entryDy=0;labelBackgroundColor=default;strokeColor=default;align=center;verticalAlign=middle;fontFamily=Helvetica;fontSize=11;fontColor=default;endArrow=classic;" parent="1" source="X4WSiCKo_hcngLiKr_Ob-60" target="X4WSiCKo_hcngLiKr_Ob-62" edge="1">
          <mxGeometry relative="1" as="geometry" />
        </mxCell>
        <mxCell id="X4WSiCKo_hcngLiKr_Ob-60" value="P" style="ellipse;whiteSpace=wrap;html=1;aspect=fixed;" parent="1" vertex="1">
          <mxGeometry x="280" y="360" width="40" height="40" as="geometry" />
        </mxCell>
        <mxCell id="X4WSiCKo_hcngLiKr_Ob-61" style="edgeStyle=none;shape=connector;rounded=0;orthogonalLoop=1;jettySize=auto;html=1;exitX=0.5;exitY=1;exitDx=0;exitDy=0;entryX=0.5;entryY=0;entryDx=0;entryDy=0;labelBackgroundColor=default;strokeColor=default;align=center;verticalAlign=middle;fontFamily=Helvetica;fontSize=11;fontColor=default;endArrow=classic;" parent="1" source="X4WSiCKo_hcngLiKr_Ob-62" target="X4WSiCKo_hcngLiKr_Ob-64" edge="1">
          <mxGeometry relative="1" as="geometry" />
        </mxCell>
        <mxCell id="X4WSiCKo_hcngLiKr_Ob-62" value="B" style="ellipse;whiteSpace=wrap;html=1;aspect=fixed;fillColor=#000000;strokeColor=none;fontColor=#FFFFFF;" parent="1" vertex="1">
          <mxGeometry x="320" y="440" width="40" height="40" as="geometry" />
        </mxCell>
        <mxCell id="X4WSiCKo_hcngLiKr_Ob-64" value="BR" style="ellipse;whiteSpace=wrap;html=1;aspect=fixed;fillColor=#FF0000;strokeColor=none;fontColor=#FFFFFF;" parent="1" vertex="1">
          <mxGeometry x="360" y="520" width="40" height="40" as="geometry" />
        </mxCell>
        <mxCell id="X4WSiCKo_hcngLiKr_Ob-71" style="edgeStyle=none;shape=connector;rounded=0;orthogonalLoop=1;jettySize=auto;html=1;exitX=0.5;exitY=1;exitDx=0;exitDy=0;entryX=0.5;entryY=0;entryDx=0;entryDy=0;labelBackgroundColor=default;strokeColor=default;align=center;verticalAlign=middle;fontFamily=Helvetica;fontSize=11;fontColor=default;endArrow=classic;" parent="1" source="X4WSiCKo_hcngLiKr_Ob-66" target="X4WSiCKo_hcngLiKr_Ob-69" edge="1">
          <mxGeometry relative="1" as="geometry" />
        </mxCell>
        <mxCell id="X4WSiCKo_hcngLiKr_Ob-66" value="B" style="ellipse;whiteSpace=wrap;html=1;aspect=fixed;" parent="1" vertex="1">
          <mxGeometry x="480" y="440" width="40" height="40" as="geometry" />
        </mxCell>
        <mxCell id="X4WSiCKo_hcngLiKr_Ob-70" style="edgeStyle=none;shape=connector;rounded=0;orthogonalLoop=1;jettySize=auto;html=1;exitX=0.5;exitY=1;exitDx=0;exitDy=0;entryX=0.5;entryY=0;entryDx=0;entryDy=0;labelBackgroundColor=default;strokeColor=default;align=center;verticalAlign=middle;fontFamily=Helvetica;fontSize=11;fontColor=default;endArrow=classic;" parent="1" source="X4WSiCKo_hcngLiKr_Ob-68" target="X4WSiCKo_hcngLiKr_Ob-66" edge="1">
          <mxGeometry relative="1" as="geometry" />
        </mxCell>
        <mxCell id="X4WSiCKo_hcngLiKr_Ob-68" value="P" style="ellipse;whiteSpace=wrap;html=1;aspect=fixed;fillColor=#000000;strokeColor=none;fontColor=#FFFFFF;" parent="1" vertex="1">
          <mxGeometry x="440" y="360" width="40" height="40" as="geometry" />
        </mxCell>
        <mxCell id="X4WSiCKo_hcngLiKr_Ob-69" value="BR" style="ellipse;whiteSpace=wrap;html=1;aspect=fixed;fillColor=#000000;strokeColor=none;fontColor=#FFFFFF;" parent="1" vertex="1">
          <mxGeometry x="520" y="520" width="40" height="40" as="geometry" />
        </mxCell>
        <mxCell id="X4WSiCKo_hcngLiKr_Ob-72" style="edgeStyle=none;shape=connector;rounded=0;orthogonalLoop=1;jettySize=auto;html=1;exitX=0.5;exitY=1;exitDx=0;exitDy=0;entryX=0.5;entryY=0;entryDx=0;entryDy=0;labelBackgroundColor=default;strokeColor=default;align=center;verticalAlign=middle;fontFamily=Helvetica;fontSize=11;fontColor=default;endArrow=classic;" parent="1" source="X4WSiCKo_hcngLiKr_Ob-73" target="X4WSiCKo_hcngLiKr_Ob-76" edge="1">
          <mxGeometry relative="1" as="geometry" />
        </mxCell>
        <mxCell id="X4WSiCKo_hcngLiKr_Ob-77" style="edgeStyle=none;shape=connector;rounded=0;orthogonalLoop=1;jettySize=auto;html=1;exitX=0.5;exitY=1;exitDx=0;exitDy=0;entryX=0.5;entryY=0;entryDx=0;entryDy=0;labelBackgroundColor=default;strokeColor=default;align=center;verticalAlign=middle;fontFamily=Helvetica;fontSize=11;fontColor=default;endArrow=classic;" parent="1" source="X4WSiCKo_hcngLiKr_Ob-73" target="X4WSiCKo_hcngLiKr_Ob-75" edge="1">
          <mxGeometry relative="1" as="geometry" />
        </mxCell>
        <mxCell id="X4WSiCKo_hcngLiKr_Ob-73" value="B" style="ellipse;whiteSpace=wrap;html=1;aspect=fixed;" parent="1" vertex="1">
          <mxGeometry x="680" y="400" width="40" height="40" as="geometry" />
        </mxCell>
        <mxCell id="X4WSiCKo_hcngLiKr_Ob-75" value="P" style="ellipse;whiteSpace=wrap;html=1;aspect=fixed;fillColor=#000000;strokeColor=none;fontColor=#FFFFFF;" parent="1" vertex="1">
          <mxGeometry x="640" y="480" width="40" height="40" as="geometry" />
        </mxCell>
        <mxCell id="X4WSiCKo_hcngLiKr_Ob-76" value="BR" style="ellipse;whiteSpace=wrap;html=1;aspect=fixed;fillColor=#000000;strokeColor=none;fontColor=#FFFFFF;" parent="1" vertex="1">
          <mxGeometry x="720" y="480" width="40" height="40" as="geometry" />
        </mxCell>
        <mxCell id="X4WSiCKo_hcngLiKr_Ob-78" value="删除N" style="shape=singleArrow;whiteSpace=wrap;html=1;arrowWidth=0.4;arrowSize=0.4;fontFamily=Helvetica;fontSize=11;fillColor=#dae8fc;strokeColor=none;" parent="1" vertex="1">
          <mxGeometry x="240" y="440" width="40" height="40" as="geometry" />
        </mxCell>
        <mxCell id="X4WSiCKo_hcngLiKr_Ob-79" value="" style="shape=singleArrow;whiteSpace=wrap;html=1;arrowWidth=0.4;arrowSize=0.4;fontFamily=Helvetica;fontSize=11;fillColor=#dae8fc;strokeColor=none;" parent="1" vertex="1">
          <mxGeometry x="400" y="440" width="40" height="40" as="geometry" />
        </mxCell>
        <mxCell id="X4WSiCKo_hcngLiKr_Ob-80" value="P左旋" style="shape=singleArrow;whiteSpace=wrap;html=1;arrowWidth=0.4;arrowSize=0.4;fontFamily=Helvetica;fontSize=11;fillColor=#dae8fc;strokeColor=none;" parent="1" vertex="1">
          <mxGeometry x="560" y="440" width="40" height="40" as="geometry" />
        </mxCell>
        <mxCell id="X4WSiCKo_hcngLiKr_Ob-81" value="B改成P的颜色，&lt;br&gt;P、BR改成黑色" style="text;html=1;align=center;verticalAlign=middle;resizable=0;points=[];autosize=1;strokeColor=none;fillColor=none;fontSize=11;fontFamily=Helvetica;fontColor=default;" parent="1" vertex="1">
          <mxGeometry x="370" y="440" width="100" height="40" as="geometry" />
        </mxCell>
        <mxCell id="X4WSiCKo_hcngLiKr_Ob-82" value="BL改成P的颜色，&lt;br&gt;P改成黑色" style="text;html=1;align=center;verticalAlign=middle;resizable=0;points=[];autosize=1;strokeColor=none;fillColor=none;fontSize=11;fontFamily=Helvetica;fontColor=default;" parent="1" vertex="1">
          <mxGeometry x="428" y="160" width="110" height="40" as="geometry" />
        </mxCell>
        <mxCell id="X4WSiCKo_hcngLiKr_Ob-83" style="rounded=0;orthogonalLoop=1;jettySize=auto;html=1;exitX=0.5;exitY=1;exitDx=0;exitDy=0;entryX=0.5;entryY=0;entryDx=0;entryDy=0;" parent="1" source="X4WSiCKo_hcngLiKr_Ob-85" target="X4WSiCKo_hcngLiKr_Ob-88" edge="1">
          <mxGeometry relative="1" as="geometry" />
        </mxCell>
        <mxCell id="X4WSiCKo_hcngLiKr_Ob-84" style="edgeStyle=none;shape=connector;rounded=0;orthogonalLoop=1;jettySize=auto;html=1;exitX=0.5;exitY=1;exitDx=0;exitDy=0;entryX=0.5;entryY=0;entryDx=0;entryDy=0;labelBackgroundColor=default;strokeColor=default;align=center;verticalAlign=middle;fontFamily=Helvetica;fontSize=11;fontColor=default;endArrow=classic;" parent="1" source="X4WSiCKo_hcngLiKr_Ob-85" target="X4WSiCKo_hcngLiKr_Ob-87" edge="1">
          <mxGeometry relative="1" as="geometry" />
        </mxCell>
        <mxCell id="X4WSiCKo_hcngLiKr_Ob-85" value="P" style="ellipse;whiteSpace=wrap;html=1;aspect=fixed;" parent="1" vertex="1">
          <mxGeometry x="120" y="640" width="40" height="40" as="geometry" />
        </mxCell>
        <mxCell id="X4WSiCKo_hcngLiKr_Ob-86" style="edgeStyle=none;shape=connector;rounded=0;orthogonalLoop=1;jettySize=auto;html=1;exitX=0.5;exitY=1;exitDx=0;exitDy=0;entryX=0.5;entryY=0;entryDx=0;entryDy=0;labelBackgroundColor=default;strokeColor=default;align=center;verticalAlign=middle;fontFamily=Helvetica;fontSize=11;fontColor=default;endArrow=classic;" parent="1" source="X4WSiCKo_hcngLiKr_Ob-87" target="X4WSiCKo_hcngLiKr_Ob-89" edge="1">
          <mxGeometry relative="1" as="geometry" />
        </mxCell>
        <mxCell id="X4WSiCKo_hcngLiKr_Ob-94" style="edgeStyle=none;shape=connector;rounded=0;orthogonalLoop=1;jettySize=auto;html=1;exitX=0.5;exitY=1;exitDx=0;exitDy=0;entryX=0.5;entryY=0;entryDx=0;entryDy=0;labelBackgroundColor=default;strokeColor=default;align=center;verticalAlign=middle;fontFamily=Helvetica;fontSize=11;fontColor=default;endArrow=classic;" parent="1" source="X4WSiCKo_hcngLiKr_Ob-87" target="X4WSiCKo_hcngLiKr_Ob-93" edge="1">
          <mxGeometry relative="1" as="geometry" />
        </mxCell>
        <mxCell id="X4WSiCKo_hcngLiKr_Ob-87" value="B" style="ellipse;whiteSpace=wrap;html=1;aspect=fixed;fillColor=#000000;strokeColor=none;fontColor=#FFFFFF;" parent="1" vertex="1">
          <mxGeometry x="160" y="720" width="40" height="40" as="geometry" />
        </mxCell>
        <mxCell id="X4WSiCKo_hcngLiKr_Ob-88" value="&lt;font color=&quot;#ffffff&quot;&gt;N&lt;/font&gt;" style="ellipse;whiteSpace=wrap;html=1;aspect=fixed;fillColor=#000000;strokeColor=none;fontColor=#3333FF;" parent="1" vertex="1">
          <mxGeometry x="80" y="720" width="40" height="40" as="geometry" />
        </mxCell>
        <mxCell id="X4WSiCKo_hcngLiKr_Ob-89" value="BR" style="ellipse;whiteSpace=wrap;html=1;aspect=fixed;fillColor=#FF0000;strokeColor=none;fontColor=#FFFFFF;" parent="1" vertex="1">
          <mxGeometry x="200" y="800" width="40" height="40" as="geometry" />
        </mxCell>
        <mxCell id="X4WSiCKo_hcngLiKr_Ob-90" value="删除N" style="shape=singleArrow;whiteSpace=wrap;html=1;arrowWidth=0.4;arrowSize=0.4;fontFamily=Helvetica;fontSize=11;fillColor=#dae8fc;strokeColor=none;" parent="1" vertex="1">
          <mxGeometry x="240" y="720" width="40" height="40" as="geometry" />
        </mxCell>
        <mxCell id="X4WSiCKo_hcngLiKr_Ob-91" value="" style="endArrow=none;dashed=1;html=1;strokeWidth=2;rounded=0;fillColor=#dae8fc;strokeColor=#6c8ebf;" parent="1" edge="1">
          <mxGeometry width="50" height="50" relative="1" as="geometry">
            <mxPoint x="80" y="600" as="sourcePoint" />
            <mxPoint x="760" y="600" as="targetPoint" />
          </mxGeometry>
        </mxCell>
        <mxCell id="X4WSiCKo_hcngLiKr_Ob-93" value="BL" style="ellipse;whiteSpace=wrap;html=1;aspect=fixed;fillColor=#FF0000;strokeColor=none;fontColor=#FFFFFF;" parent="1" vertex="1">
          <mxGeometry x="120" y="800" width="40" height="40" as="geometry" />
        </mxCell>
        <mxCell id="X4WSiCKo_hcngLiKr_Ob-96" style="edgeStyle=none;shape=connector;rounded=0;orthogonalLoop=1;jettySize=auto;html=1;exitX=0.5;exitY=1;exitDx=0;exitDy=0;entryX=0.5;entryY=0;entryDx=0;entryDy=0;labelBackgroundColor=default;strokeColor=default;align=center;verticalAlign=middle;fontFamily=Helvetica;fontSize=11;fontColor=default;endArrow=classic;" parent="1" source="X4WSiCKo_hcngLiKr_Ob-97" target="X4WSiCKo_hcngLiKr_Ob-100" edge="1">
          <mxGeometry relative="1" as="geometry" />
        </mxCell>
        <mxCell id="X4WSiCKo_hcngLiKr_Ob-97" value="P" style="ellipse;whiteSpace=wrap;html=1;aspect=fixed;" parent="1" vertex="1">
          <mxGeometry x="280" y="640" width="40" height="40" as="geometry" />
        </mxCell>
        <mxCell id="X4WSiCKo_hcngLiKr_Ob-98" style="edgeStyle=none;shape=connector;rounded=0;orthogonalLoop=1;jettySize=auto;html=1;exitX=0.5;exitY=1;exitDx=0;exitDy=0;entryX=0.5;entryY=0;entryDx=0;entryDy=0;labelBackgroundColor=default;strokeColor=default;align=center;verticalAlign=middle;fontFamily=Helvetica;fontSize=11;fontColor=default;endArrow=classic;" parent="1" source="X4WSiCKo_hcngLiKr_Ob-100" target="X4WSiCKo_hcngLiKr_Ob-102" edge="1">
          <mxGeometry relative="1" as="geometry" />
        </mxCell>
        <mxCell id="X4WSiCKo_hcngLiKr_Ob-99" style="edgeStyle=none;shape=connector;rounded=0;orthogonalLoop=1;jettySize=auto;html=1;exitX=0.5;exitY=1;exitDx=0;exitDy=0;entryX=0.5;entryY=0;entryDx=0;entryDy=0;labelBackgroundColor=default;strokeColor=default;align=center;verticalAlign=middle;fontFamily=Helvetica;fontSize=11;fontColor=default;endArrow=classic;" parent="1" source="X4WSiCKo_hcngLiKr_Ob-100" target="X4WSiCKo_hcngLiKr_Ob-103" edge="1">
          <mxGeometry relative="1" as="geometry" />
        </mxCell>
        <mxCell id="X4WSiCKo_hcngLiKr_Ob-100" value="B" style="ellipse;whiteSpace=wrap;html=1;aspect=fixed;fillColor=#000000;strokeColor=none;fontColor=#FFFFFF;" parent="1" vertex="1">
          <mxGeometry x="320" y="720" width="40" height="40" as="geometry" />
        </mxCell>
        <mxCell id="X4WSiCKo_hcngLiKr_Ob-102" value="BR" style="ellipse;whiteSpace=wrap;html=1;aspect=fixed;fillColor=#FF0000;strokeColor=none;fontColor=#FFFFFF;" parent="1" vertex="1">
          <mxGeometry x="360" y="800" width="40" height="40" as="geometry" />
        </mxCell>
        <mxCell id="X4WSiCKo_hcngLiKr_Ob-103" value="BL" style="ellipse;whiteSpace=wrap;html=1;aspect=fixed;fillColor=#FF0000;strokeColor=none;fontColor=#FFFFFF;" parent="1" vertex="1">
          <mxGeometry x="280" y="800" width="40" height="40" as="geometry" />
        </mxCell>
        <mxCell id="X4WSiCKo_hcngLiKr_Ob-112" style="edgeStyle=none;shape=connector;rounded=0;orthogonalLoop=1;jettySize=auto;html=1;exitX=0.5;exitY=1;exitDx=0;exitDy=0;entryX=0.5;entryY=0;entryDx=0;entryDy=0;labelBackgroundColor=default;strokeColor=default;align=center;verticalAlign=middle;fontFamily=Helvetica;fontSize=11;fontColor=default;endArrow=classic;" parent="1" source="X4WSiCKo_hcngLiKr_Ob-105" target="X4WSiCKo_hcngLiKr_Ob-110" edge="1">
          <mxGeometry relative="1" as="geometry" />
        </mxCell>
        <mxCell id="X4WSiCKo_hcngLiKr_Ob-105" value="P" style="ellipse;whiteSpace=wrap;html=1;aspect=fixed;" parent="1" vertex="1">
          <mxGeometry x="440" y="720" width="40" height="40" as="geometry" />
        </mxCell>
        <mxCell id="X4WSiCKo_hcngLiKr_Ob-106" style="edgeStyle=none;shape=connector;rounded=0;orthogonalLoop=1;jettySize=auto;html=1;exitX=0.5;exitY=1;exitDx=0;exitDy=0;entryX=0.5;entryY=0;entryDx=0;entryDy=0;labelBackgroundColor=default;strokeColor=default;align=center;verticalAlign=middle;fontFamily=Helvetica;fontSize=11;fontColor=default;endArrow=classic;" parent="1" source="X4WSiCKo_hcngLiKr_Ob-108" target="X4WSiCKo_hcngLiKr_Ob-109" edge="1">
          <mxGeometry relative="1" as="geometry" />
        </mxCell>
        <mxCell id="X4WSiCKo_hcngLiKr_Ob-111" style="edgeStyle=none;shape=connector;rounded=0;orthogonalLoop=1;jettySize=auto;html=1;exitX=0.5;exitY=1;exitDx=0;exitDy=0;entryX=0.5;entryY=0;entryDx=0;entryDy=0;labelBackgroundColor=default;strokeColor=default;align=center;verticalAlign=middle;fontFamily=Helvetica;fontSize=11;fontColor=default;endArrow=classic;" parent="1" source="X4WSiCKo_hcngLiKr_Ob-108" target="X4WSiCKo_hcngLiKr_Ob-105" edge="1">
          <mxGeometry relative="1" as="geometry" />
        </mxCell>
        <mxCell id="X4WSiCKo_hcngLiKr_Ob-108" value="B" style="ellipse;whiteSpace=wrap;html=1;aspect=fixed;fillColor=#000000;strokeColor=none;fontColor=#FFFFFF;" parent="1" vertex="1">
          <mxGeometry x="480" y="640" width="40" height="40" as="geometry" />
        </mxCell>
        <mxCell id="X4WSiCKo_hcngLiKr_Ob-109" value="BR" style="ellipse;whiteSpace=wrap;html=1;aspect=fixed;fillColor=#FF0000;strokeColor=none;fontColor=#FFFFFF;" parent="1" vertex="1">
          <mxGeometry x="520" y="720" width="40" height="40" as="geometry" />
        </mxCell>
        <mxCell id="X4WSiCKo_hcngLiKr_Ob-110" value="BL" style="ellipse;whiteSpace=wrap;html=1;aspect=fixed;fillColor=#FF0000;strokeColor=none;fontColor=#FFFFFF;" parent="1" vertex="1">
          <mxGeometry x="480" y="800" width="40" height="40" as="geometry" />
        </mxCell>
        <mxCell id="X4WSiCKo_hcngLiKr_Ob-120" style="edgeStyle=none;shape=connector;rounded=0;orthogonalLoop=1;jettySize=auto;html=1;exitX=0.5;exitY=1;exitDx=0;exitDy=0;entryX=0.5;entryY=0;entryDx=0;entryDy=0;labelBackgroundColor=default;strokeColor=default;align=center;verticalAlign=middle;fontFamily=Helvetica;fontSize=11;fontColor=default;endArrow=classic;" parent="1" source="X4WSiCKo_hcngLiKr_Ob-114" target="X4WSiCKo_hcngLiKr_Ob-118" edge="1">
          <mxGeometry relative="1" as="geometry" />
        </mxCell>
        <mxCell id="X4WSiCKo_hcngLiKr_Ob-121" style="edgeStyle=none;shape=connector;rounded=0;orthogonalLoop=1;jettySize=auto;html=1;exitX=0.5;exitY=1;exitDx=0;exitDy=0;entryX=0.5;entryY=0;entryDx=0;entryDy=0;labelBackgroundColor=default;strokeColor=default;align=center;verticalAlign=middle;fontFamily=Helvetica;fontSize=11;fontColor=default;endArrow=classic;" parent="1" source="X4WSiCKo_hcngLiKr_Ob-114" target="X4WSiCKo_hcngLiKr_Ob-117" edge="1">
          <mxGeometry relative="1" as="geometry" />
        </mxCell>
        <mxCell id="X4WSiCKo_hcngLiKr_Ob-114" value="B" style="ellipse;whiteSpace=wrap;html=1;aspect=fixed;" parent="1" vertex="1">
          <mxGeometry x="680" y="640" width="40" height="40" as="geometry" />
        </mxCell>
        <mxCell id="X4WSiCKo_hcngLiKr_Ob-122" style="edgeStyle=none;shape=connector;rounded=0;orthogonalLoop=1;jettySize=auto;html=1;exitX=0.5;exitY=1;exitDx=0;exitDy=0;entryX=0.5;entryY=0;entryDx=0;entryDy=0;labelBackgroundColor=default;strokeColor=default;align=center;verticalAlign=middle;fontFamily=Helvetica;fontSize=11;fontColor=default;endArrow=classic;" parent="1" source="X4WSiCKo_hcngLiKr_Ob-117" target="X4WSiCKo_hcngLiKr_Ob-119" edge="1">
          <mxGeometry relative="1" as="geometry" />
        </mxCell>
        <mxCell id="X4WSiCKo_hcngLiKr_Ob-117" value="P" style="ellipse;whiteSpace=wrap;html=1;aspect=fixed;fillColor=#000000;strokeColor=none;fontColor=#FFFFFF;" parent="1" vertex="1">
          <mxGeometry x="640" y="720" width="40" height="40" as="geometry" />
        </mxCell>
        <mxCell id="X4WSiCKo_hcngLiKr_Ob-118" value="BR" style="ellipse;whiteSpace=wrap;html=1;aspect=fixed;fillColor=#000000;strokeColor=none;fontColor=#FFFFFF;" parent="1" vertex="1">
          <mxGeometry x="720" y="720" width="40" height="40" as="geometry" />
        </mxCell>
        <mxCell id="X4WSiCKo_hcngLiKr_Ob-119" value="BL" style="ellipse;whiteSpace=wrap;html=1;aspect=fixed;fillColor=#FF0000;strokeColor=none;fontColor=#FFFFFF;" parent="1" vertex="1">
          <mxGeometry x="680" y="800" width="40" height="40" as="geometry" />
        </mxCell>
        <mxCell id="X4WSiCKo_hcngLiKr_Ob-123" value="P左旋" style="shape=singleArrow;whiteSpace=wrap;html=1;arrowWidth=0.4;arrowSize=0.4;fontFamily=Helvetica;fontSize=11;fillColor=#dae8fc;strokeColor=none;" parent="1" vertex="1">
          <mxGeometry x="380" y="720" width="40" height="40" as="geometry" />
        </mxCell>
        <mxCell id="X4WSiCKo_hcngLiKr_Ob-124" value="" style="shape=singleArrow;whiteSpace=wrap;html=1;arrowWidth=0.4;arrowSize=0.4;fontFamily=Helvetica;fontSize=11;fillColor=#dae8fc;strokeColor=none;" parent="1" vertex="1">
          <mxGeometry x="580" y="720" width="40" height="40" as="geometry" />
        </mxCell>
        <mxCell id="X4WSiCKo_hcngLiKr_Ob-127" value="B改成P的颜色，&lt;br&gt;P、BR改成黑色" style="text;html=1;align=center;verticalAlign=middle;resizable=0;points=[];autosize=1;strokeColor=none;fillColor=none;fontSize=11;fontFamily=Helvetica;fontColor=default;" parent="1" vertex="1">
          <mxGeometry x="550" y="720" width="100" height="40" as="geometry" />
        </mxCell>
        <mxCell id="X4WSiCKo_hcngLiKr_Ob-128" value="" style="endArrow=none;dashed=1;html=1;strokeWidth=2;rounded=0;fillColor=#dae8fc;strokeColor=#6c8ebf;" parent="1" edge="1">
          <mxGeometry width="50" height="50" relative="1" as="geometry">
            <mxPoint x="80" y="880" as="sourcePoint" />
            <mxPoint x="760" y="880" as="targetPoint" />
          </mxGeometry>
        </mxCell>
        <mxCell id="X4WSiCKo_hcngLiKr_Ob-130" style="rounded=0;orthogonalLoop=1;jettySize=auto;html=1;exitX=0.5;exitY=1;exitDx=0;exitDy=0;entryX=0.5;entryY=0;entryDx=0;entryDy=0;" parent="1" source="X4WSiCKo_hcngLiKr_Ob-132" target="X4WSiCKo_hcngLiKr_Ob-134" edge="1">
          <mxGeometry relative="1" as="geometry" />
        </mxCell>
        <mxCell id="X4WSiCKo_hcngLiKr_Ob-131" style="edgeStyle=none;shape=connector;rounded=0;orthogonalLoop=1;jettySize=auto;html=1;exitX=0.5;exitY=1;exitDx=0;exitDy=0;entryX=0.5;entryY=0;entryDx=0;entryDy=0;labelBackgroundColor=default;strokeColor=default;align=center;verticalAlign=middle;fontFamily=Helvetica;fontSize=11;fontColor=default;endArrow=classic;" parent="1" source="X4WSiCKo_hcngLiKr_Ob-132" target="X4WSiCKo_hcngLiKr_Ob-133" edge="1">
          <mxGeometry relative="1" as="geometry" />
        </mxCell>
        <mxCell id="X4WSiCKo_hcngLiKr_Ob-132" value="P" style="ellipse;whiteSpace=wrap;html=1;aspect=fixed;" parent="1" vertex="1">
          <mxGeometry x="160" y="920" width="40" height="40" as="geometry" />
        </mxCell>
        <mxCell id="X4WSiCKo_hcngLiKr_Ob-133" value="B" style="ellipse;whiteSpace=wrap;html=1;aspect=fixed;fillColor=#000000;strokeColor=none;fontColor=#FFFFFF;" parent="1" vertex="1">
          <mxGeometry x="200" y="1000" width="40" height="40" as="geometry" />
        </mxCell>
        <mxCell id="X4WSiCKo_hcngLiKr_Ob-134" value="&lt;font color=&quot;#ffffff&quot;&gt;N&lt;/font&gt;" style="ellipse;whiteSpace=wrap;html=1;aspect=fixed;fillColor=#000000;strokeColor=none;fontColor=#3333FF;" parent="1" vertex="1">
          <mxGeometry x="120" y="1000" width="40" height="40" as="geometry" />
        </mxCell>
        <mxCell id="X4WSiCKo_hcngLiKr_Ob-136" style="edgeStyle=none;shape=connector;rounded=0;orthogonalLoop=1;jettySize=auto;html=1;exitX=0.5;exitY=1;exitDx=0;exitDy=0;entryX=0.5;entryY=0;entryDx=0;entryDy=0;labelBackgroundColor=default;strokeColor=default;align=center;verticalAlign=middle;fontFamily=Helvetica;fontSize=11;fontColor=default;endArrow=classic;" parent="1" source="X4WSiCKo_hcngLiKr_Ob-137" target="X4WSiCKo_hcngLiKr_Ob-138" edge="1">
          <mxGeometry relative="1" as="geometry" />
        </mxCell>
        <mxCell id="X4WSiCKo_hcngLiKr_Ob-137" value="P" style="ellipse;whiteSpace=wrap;html=1;aspect=fixed;" parent="1" vertex="1">
          <mxGeometry x="360" y="920" width="40" height="40" as="geometry" />
        </mxCell>
        <mxCell id="X4WSiCKo_hcngLiKr_Ob-138" value="B" style="ellipse;whiteSpace=wrap;html=1;aspect=fixed;fillColor=#000000;strokeColor=none;fontColor=#FFFFFF;" parent="1" vertex="1">
          <mxGeometry x="400" y="1000" width="40" height="40" as="geometry" />
        </mxCell>
        <mxCell id="X4WSiCKo_hcngLiKr_Ob-143" value="B" style="ellipse;whiteSpace=wrap;html=1;aspect=fixed;fillColor=#FF0000;strokeColor=none;fontColor=#FFFFFF;" parent="1" vertex="1">
          <mxGeometry x="600" y="1000" width="40" height="40" as="geometry" />
        </mxCell>
        <mxCell id="X4WSiCKo_hcngLiKr_Ob-145" value="删除N" style="shape=singleArrow;whiteSpace=wrap;html=1;arrowWidth=0.4;arrowSize=0.4;fontFamily=Helvetica;fontSize=11;fillColor=#dae8fc;strokeColor=none;" parent="1" vertex="1">
          <mxGeometry x="280" y="960" width="40" height="40" as="geometry" />
        </mxCell>
        <mxCell id="X4WSiCKo_hcngLiKr_Ob-147" value="" style="shape=singleArrow;whiteSpace=wrap;html=1;arrowWidth=0.4;arrowSize=0.4;fontFamily=Helvetica;fontSize=11;fillColor=#dae8fc;strokeColor=none;" parent="1" vertex="1">
          <mxGeometry x="480" y="960" width="40" height="40" as="geometry" />
        </mxCell>
        <mxCell id="X4WSiCKo_hcngLiKr_Ob-148" value="P改成黑色，&lt;br&gt;B改成红色" style="text;html=1;align=center;verticalAlign=middle;resizable=0;points=[];autosize=1;strokeColor=none;fillColor=none;fontSize=11;fontFamily=Helvetica;fontColor=default;" parent="1" vertex="1">
          <mxGeometry x="460" y="960" width="90" height="40" as="geometry" />
        </mxCell>
        <mxCell id="X4WSiCKo_hcngLiKr_Ob-150" style="edgeStyle=none;shape=connector;rounded=0;orthogonalLoop=1;jettySize=auto;html=1;exitX=0.5;exitY=1;exitDx=0;exitDy=0;entryX=0.5;entryY=0;entryDx=0;entryDy=0;labelBackgroundColor=default;strokeColor=default;align=center;verticalAlign=middle;fontFamily=Helvetica;fontSize=11;fontColor=default;endArrow=classic;" parent="1" source="X4WSiCKo_hcngLiKr_Ob-149" target="X4WSiCKo_hcngLiKr_Ob-143" edge="1">
          <mxGeometry relative="1" as="geometry" />
        </mxCell>
        <mxCell id="X4WSiCKo_hcngLiKr_Ob-149" value="P" style="ellipse;whiteSpace=wrap;html=1;aspect=fixed;fillColor=#000000;strokeColor=none;fontColor=#FFFFFF;" parent="1" vertex="1">
          <mxGeometry x="560" y="920" width="40" height="40" as="geometry" />
        </mxCell>
        <mxCell id="X4WSiCKo_hcngLiKr_Ob-151" value="" style="endArrow=none;dashed=1;html=1;strokeWidth=2;rounded=0;fillColor=#dae8fc;strokeColor=#6c8ebf;" parent="1" edge="1">
          <mxGeometry width="50" height="50" relative="1" as="geometry">
            <mxPoint x="80" y="1080" as="sourcePoint" />
            <mxPoint x="760" y="1080" as="targetPoint" />
          </mxGeometry>
        </mxCell>
        <mxCell id="X4WSiCKo_hcngLiKr_Ob-153" style="rounded=0;orthogonalLoop=1;jettySize=auto;html=1;exitX=0.5;exitY=1;exitDx=0;exitDy=0;entryX=0.5;entryY=0;entryDx=0;entryDy=0;" parent="1" source="X4WSiCKo_hcngLiKr_Ob-155" target="X4WSiCKo_hcngLiKr_Ob-157" edge="1">
          <mxGeometry relative="1" as="geometry" />
        </mxCell>
        <mxCell id="X4WSiCKo_hcngLiKr_Ob-154" style="edgeStyle=none;shape=connector;rounded=0;orthogonalLoop=1;jettySize=auto;html=1;exitX=0.5;exitY=1;exitDx=0;exitDy=0;entryX=0.5;entryY=0;entryDx=0;entryDy=0;labelBackgroundColor=default;strokeColor=default;align=center;verticalAlign=middle;fontFamily=Helvetica;fontSize=11;fontColor=default;endArrow=classic;" parent="1" source="X4WSiCKo_hcngLiKr_Ob-155" target="X4WSiCKo_hcngLiKr_Ob-156" edge="1">
          <mxGeometry relative="1" as="geometry" />
        </mxCell>
        <mxCell id="X4WSiCKo_hcngLiKr_Ob-155" value="&lt;font color=&quot;#ffffff&quot;&gt;P&lt;/font&gt;" style="ellipse;whiteSpace=wrap;html=1;aspect=fixed;fillColor=#000000;" parent="1" vertex="1">
          <mxGeometry x="120" y="1120" width="40" height="40" as="geometry" />
        </mxCell>
        <mxCell id="X4WSiCKo_hcngLiKr_Ob-171" style="edgeStyle=none;shape=connector;rounded=0;orthogonalLoop=1;jettySize=auto;html=1;exitX=0.5;exitY=1;exitDx=0;exitDy=0;entryX=0.5;entryY=0;entryDx=0;entryDy=0;labelBackgroundColor=default;strokeColor=default;align=center;verticalAlign=middle;fontFamily=Helvetica;fontSize=11;fontColor=default;endArrow=classic;" parent="1" source="X4WSiCKo_hcngLiKr_Ob-156" target="X4WSiCKo_hcngLiKr_Ob-169" edge="1">
          <mxGeometry relative="1" as="geometry" />
        </mxCell>
        <mxCell id="X4WSiCKo_hcngLiKr_Ob-172" style="edgeStyle=none;shape=connector;rounded=0;orthogonalLoop=1;jettySize=auto;html=1;exitX=0.5;exitY=1;exitDx=0;exitDy=0;entryX=0.5;entryY=0;entryDx=0;entryDy=0;labelBackgroundColor=default;strokeColor=default;align=center;verticalAlign=middle;fontFamily=Helvetica;fontSize=11;fontColor=default;endArrow=classic;" parent="1" source="X4WSiCKo_hcngLiKr_Ob-156" target="X4WSiCKo_hcngLiKr_Ob-170" edge="1">
          <mxGeometry relative="1" as="geometry" />
        </mxCell>
        <mxCell id="X4WSiCKo_hcngLiKr_Ob-156" value="B" style="ellipse;whiteSpace=wrap;html=1;aspect=fixed;fillColor=#FF0000;strokeColor=none;fontColor=#FFFFFF;" parent="1" vertex="1">
          <mxGeometry x="160" y="1200" width="40" height="40" as="geometry" />
        </mxCell>
        <mxCell id="X4WSiCKo_hcngLiKr_Ob-157" value="&lt;font color=&quot;#ffffff&quot;&gt;N&lt;/font&gt;" style="ellipse;whiteSpace=wrap;html=1;aspect=fixed;fillColor=#000000;strokeColor=none;fontColor=#3333FF;" parent="1" vertex="1">
          <mxGeometry x="80" y="1200" width="40" height="40" as="geometry" />
        </mxCell>
        <mxCell id="X4WSiCKo_hcngLiKr_Ob-169" value="&lt;font color=&quot;#ffffff&quot;&gt;BL&lt;/font&gt;" style="ellipse;whiteSpace=wrap;html=1;aspect=fixed;fillColor=#000000;strokeColor=none;fontColor=#3333FF;" parent="1" vertex="1">
          <mxGeometry x="120" y="1280" width="40" height="40" as="geometry" />
        </mxCell>
        <mxCell id="X4WSiCKo_hcngLiKr_Ob-170" value="&lt;font color=&quot;#ffffff&quot;&gt;BR&lt;/font&gt;" style="ellipse;whiteSpace=wrap;html=1;aspect=fixed;fillColor=#000000;strokeColor=none;fontColor=#3333FF;" parent="1" vertex="1">
          <mxGeometry x="200" y="1280" width="40" height="40" as="geometry" />
        </mxCell>
        <mxCell id="X4WSiCKo_hcngLiKr_Ob-174" style="edgeStyle=none;shape=connector;rounded=0;orthogonalLoop=1;jettySize=auto;html=1;exitX=0.5;exitY=1;exitDx=0;exitDy=0;entryX=0.5;entryY=0;entryDx=0;entryDy=0;labelBackgroundColor=default;strokeColor=default;align=center;verticalAlign=middle;fontFamily=Helvetica;fontSize=11;fontColor=default;endArrow=classic;" parent="1" source="X4WSiCKo_hcngLiKr_Ob-175" target="X4WSiCKo_hcngLiKr_Ob-178" edge="1">
          <mxGeometry relative="1" as="geometry" />
        </mxCell>
        <mxCell id="X4WSiCKo_hcngLiKr_Ob-175" value="&lt;font style=&quot;&quot; color=&quot;#ffffff&quot;&gt;P&lt;/font&gt;" style="ellipse;whiteSpace=wrap;html=1;aspect=fixed;fillColor=#000000;" parent="1" vertex="1">
          <mxGeometry x="280" y="1120" width="40" height="40" as="geometry" />
        </mxCell>
        <mxCell id="X4WSiCKo_hcngLiKr_Ob-176" style="edgeStyle=none;shape=connector;rounded=0;orthogonalLoop=1;jettySize=auto;html=1;exitX=0.5;exitY=1;exitDx=0;exitDy=0;entryX=0.5;entryY=0;entryDx=0;entryDy=0;labelBackgroundColor=default;strokeColor=default;align=center;verticalAlign=middle;fontFamily=Helvetica;fontSize=11;fontColor=default;endArrow=classic;" parent="1" source="X4WSiCKo_hcngLiKr_Ob-178" target="X4WSiCKo_hcngLiKr_Ob-180" edge="1">
          <mxGeometry relative="1" as="geometry" />
        </mxCell>
        <mxCell id="X4WSiCKo_hcngLiKr_Ob-177" style="edgeStyle=none;shape=connector;rounded=0;orthogonalLoop=1;jettySize=auto;html=1;exitX=0.5;exitY=1;exitDx=0;exitDy=0;entryX=0.5;entryY=0;entryDx=0;entryDy=0;labelBackgroundColor=default;strokeColor=default;align=center;verticalAlign=middle;fontFamily=Helvetica;fontSize=11;fontColor=default;endArrow=classic;" parent="1" source="X4WSiCKo_hcngLiKr_Ob-178" target="X4WSiCKo_hcngLiKr_Ob-181" edge="1">
          <mxGeometry relative="1" as="geometry" />
        </mxCell>
        <mxCell id="X4WSiCKo_hcngLiKr_Ob-178" value="B" style="ellipse;whiteSpace=wrap;html=1;aspect=fixed;fillColor=#FF0000;strokeColor=none;fontColor=#FFFFFF;" parent="1" vertex="1">
          <mxGeometry x="320" y="1200" width="40" height="40" as="geometry" />
        </mxCell>
        <mxCell id="X4WSiCKo_hcngLiKr_Ob-180" value="&lt;font color=&quot;#ffffff&quot;&gt;BL&lt;/font&gt;" style="ellipse;whiteSpace=wrap;html=1;aspect=fixed;fillColor=#000000;strokeColor=none;fontColor=#3333FF;" parent="1" vertex="1">
          <mxGeometry x="280" y="1280" width="40" height="40" as="geometry" />
        </mxCell>
        <mxCell id="X4WSiCKo_hcngLiKr_Ob-181" value="&lt;font color=&quot;#ffffff&quot;&gt;BR&lt;/font&gt;" style="ellipse;whiteSpace=wrap;html=1;aspect=fixed;fillColor=#000000;strokeColor=none;fontColor=#3333FF;" parent="1" vertex="1">
          <mxGeometry x="360" y="1280" width="40" height="40" as="geometry" />
        </mxCell>
        <mxCell id="X4WSiCKo_hcngLiKr_Ob-190" style="edgeStyle=none;shape=connector;rounded=0;orthogonalLoop=1;jettySize=auto;html=1;exitX=0.5;exitY=1;exitDx=0;exitDy=0;entryX=0.5;entryY=0;entryDx=0;entryDy=0;labelBackgroundColor=default;strokeColor=default;align=center;verticalAlign=middle;fontFamily=Helvetica;fontSize=11;fontColor=default;endArrow=classic;" parent="1" source="X4WSiCKo_hcngLiKr_Ob-183" target="X4WSiCKo_hcngLiKr_Ob-187" edge="1">
          <mxGeometry relative="1" as="geometry" />
        </mxCell>
        <mxCell id="X4WSiCKo_hcngLiKr_Ob-183" value="&lt;font color=&quot;#ffffff&quot;&gt;P&lt;/font&gt;" style="ellipse;whiteSpace=wrap;html=1;aspect=fixed;fillColor=#000000;" parent="1" vertex="1">
          <mxGeometry x="440" y="1200" width="40" height="40" as="geometry" />
        </mxCell>
        <mxCell id="X4WSiCKo_hcngLiKr_Ob-185" style="edgeStyle=none;shape=connector;rounded=0;orthogonalLoop=1;jettySize=auto;html=1;exitX=0.5;exitY=1;exitDx=0;exitDy=0;entryX=0.5;entryY=0;entryDx=0;entryDy=0;labelBackgroundColor=default;strokeColor=default;align=center;verticalAlign=middle;fontFamily=Helvetica;fontSize=11;fontColor=default;endArrow=classic;" parent="1" source="X4WSiCKo_hcngLiKr_Ob-186" target="X4WSiCKo_hcngLiKr_Ob-188" edge="1">
          <mxGeometry relative="1" as="geometry" />
        </mxCell>
        <mxCell id="X4WSiCKo_hcngLiKr_Ob-189" style="edgeStyle=none;shape=connector;rounded=0;orthogonalLoop=1;jettySize=auto;html=1;exitX=0.5;exitY=1;exitDx=0;exitDy=0;entryX=0.5;entryY=0;entryDx=0;entryDy=0;labelBackgroundColor=default;strokeColor=default;align=center;verticalAlign=middle;fontFamily=Helvetica;fontSize=11;fontColor=default;endArrow=classic;" parent="1" source="X4WSiCKo_hcngLiKr_Ob-186" target="X4WSiCKo_hcngLiKr_Ob-183" edge="1">
          <mxGeometry relative="1" as="geometry" />
        </mxCell>
        <mxCell id="X4WSiCKo_hcngLiKr_Ob-186" value="B" style="ellipse;whiteSpace=wrap;html=1;aspect=fixed;fillColor=#FF0000;strokeColor=none;fontColor=#FFFFFF;" parent="1" vertex="1">
          <mxGeometry x="480" y="1120" width="40" height="40" as="geometry" />
        </mxCell>
        <mxCell id="X4WSiCKo_hcngLiKr_Ob-187" value="&lt;font color=&quot;#ffffff&quot;&gt;BL&lt;/font&gt;" style="ellipse;whiteSpace=wrap;html=1;aspect=fixed;fillColor=#000000;strokeColor=none;fontColor=#3333FF;" parent="1" vertex="1">
          <mxGeometry x="480" y="1280" width="40" height="40" as="geometry" />
        </mxCell>
        <mxCell id="X4WSiCKo_hcngLiKr_Ob-188" value="&lt;font color=&quot;#ffffff&quot;&gt;BR&lt;/font&gt;" style="ellipse;whiteSpace=wrap;html=1;aspect=fixed;fillColor=#000000;strokeColor=none;fontColor=#3333FF;" parent="1" vertex="1">
          <mxGeometry x="520" y="1200" width="40" height="40" as="geometry" />
        </mxCell>
        <mxCell id="X4WSiCKo_hcngLiKr_Ob-201" style="edgeStyle=none;shape=connector;rounded=0;orthogonalLoop=1;jettySize=auto;html=1;exitX=0.5;exitY=1;exitDx=0;exitDy=0;entryX=0.5;entryY=0;entryDx=0;entryDy=0;labelBackgroundColor=default;strokeColor=default;align=center;verticalAlign=middle;fontFamily=Helvetica;fontSize=11;fontColor=default;endArrow=classic;" parent="1" source="X4WSiCKo_hcngLiKr_Ob-192" target="X4WSiCKo_hcngLiKr_Ob-195" edge="1">
          <mxGeometry relative="1" as="geometry" />
        </mxCell>
        <mxCell id="X4WSiCKo_hcngLiKr_Ob-192" value="&lt;font color=&quot;#ffffff&quot;&gt;P&lt;/font&gt;" style="ellipse;whiteSpace=wrap;html=1;aspect=fixed;fillColor=#000000;" parent="1" vertex="1">
          <mxGeometry x="640" y="1200" width="40" height="40" as="geometry" />
        </mxCell>
        <mxCell id="X4WSiCKo_hcngLiKr_Ob-195" value="BL" style="ellipse;whiteSpace=wrap;html=1;aspect=fixed;fillColor=#FF0000;strokeColor=none;fontColor=#FFFFFF;" parent="1" vertex="1">
          <mxGeometry x="680" y="1280" width="40" height="40" as="geometry" />
        </mxCell>
        <mxCell id="X4WSiCKo_hcngLiKr_Ob-198" style="edgeStyle=none;shape=connector;rounded=0;orthogonalLoop=1;jettySize=auto;html=1;exitX=0.5;exitY=1;exitDx=0;exitDy=0;entryX=0.5;entryY=0;entryDx=0;entryDy=0;labelBackgroundColor=default;strokeColor=default;align=center;verticalAlign=middle;fontFamily=Helvetica;fontSize=11;fontColor=default;endArrow=classic;" parent="1" source="X4WSiCKo_hcngLiKr_Ob-196" target="X4WSiCKo_hcngLiKr_Ob-197" edge="1">
          <mxGeometry relative="1" as="geometry" />
        </mxCell>
        <mxCell id="X4WSiCKo_hcngLiKr_Ob-200" style="edgeStyle=none;shape=connector;rounded=0;orthogonalLoop=1;jettySize=auto;html=1;exitX=0.5;exitY=1;exitDx=0;exitDy=0;entryX=0.5;entryY=0;entryDx=0;entryDy=0;labelBackgroundColor=default;strokeColor=default;align=center;verticalAlign=middle;fontFamily=Helvetica;fontSize=11;fontColor=default;endArrow=classic;" parent="1" source="X4WSiCKo_hcngLiKr_Ob-196" target="X4WSiCKo_hcngLiKr_Ob-192" edge="1">
          <mxGeometry relative="1" as="geometry" />
        </mxCell>
        <mxCell id="X4WSiCKo_hcngLiKr_Ob-196" value="&lt;font color=&quot;#ffffff&quot;&gt;B&lt;/font&gt;" style="ellipse;whiteSpace=wrap;html=1;aspect=fixed;fillColor=#000000;strokeColor=none;fontColor=#3333FF;" parent="1" vertex="1">
          <mxGeometry x="680" y="1120" width="40" height="40" as="geometry" />
        </mxCell>
        <mxCell id="X4WSiCKo_hcngLiKr_Ob-197" value="&lt;font color=&quot;#ffffff&quot;&gt;BR&lt;/font&gt;" style="ellipse;whiteSpace=wrap;html=1;aspect=fixed;fillColor=#000000;strokeColor=none;fontColor=#3333FF;" parent="1" vertex="1">
          <mxGeometry x="720" y="1200" width="40" height="40" as="geometry" />
        </mxCell>
        <mxCell id="X4WSiCKo_hcngLiKr_Ob-202" value="删除N" style="shape=singleArrow;whiteSpace=wrap;html=1;arrowWidth=0.4;arrowSize=0.4;fontFamily=Helvetica;fontSize=11;fillColor=#dae8fc;strokeColor=none;" parent="1" vertex="1">
          <mxGeometry x="240" y="1200" width="40" height="40" as="geometry" />
        </mxCell>
        <mxCell id="X4WSiCKo_hcngLiKr_Ob-203" value="P左旋" style="shape=singleArrow;whiteSpace=wrap;html=1;arrowWidth=0.4;arrowSize=0.4;fontFamily=Helvetica;fontSize=11;fillColor=#dae8fc;strokeColor=none;" parent="1" vertex="1">
          <mxGeometry x="380" y="1200" width="40" height="40" as="geometry" />
        </mxCell>
        <mxCell id="X4WSiCKo_hcngLiKr_Ob-204" value="" style="shape=singleArrow;whiteSpace=wrap;html=1;arrowWidth=0.4;arrowSize=0.4;fontFamily=Helvetica;fontSize=11;fillColor=#dae8fc;strokeColor=none;" parent="1" vertex="1">
          <mxGeometry x="580" y="1200" width="40" height="40" as="geometry" />
        </mxCell>
        <mxCell id="X4WSiCKo_hcngLiKr_Ob-205" value="B改成黑色，&lt;br&gt;BL改成红色" style="text;html=1;align=center;verticalAlign=middle;resizable=0;points=[];autosize=1;strokeColor=none;fillColor=none;fontSize=11;fontFamily=Helvetica;fontColor=default;" parent="1" vertex="1">
          <mxGeometry x="560" y="1200" width="90" height="40" as="geometry" />
        </mxCell>
        <mxCell id="ciLSwuL3Uhk11_1IPqD2-1" value="&lt;font style=&quot;font-size: 16px;&quot;&gt;第Ⅱ点：P可为红/黑色，N可为P左/右子节点，所以有4种情况。&lt;/font&gt;" style="text;html=1;align=center;verticalAlign=middle;resizable=0;points=[];autosize=1;strokeColor=none;fillColor=none;" vertex="1" parent="1">
          <mxGeometry x="80" y="320" width="470" height="30" as="geometry" />
        </mxCell>
        <mxCell id="ciLSwuL3Uhk11_1IPqD2-2" value="&lt;font style=&quot;font-size: 16px;&quot;&gt;第Ⅲ点：P可为红/黑色，N可为P左/右子节点，所以有4种情况。&lt;/font&gt;" style="text;html=1;align=center;verticalAlign=middle;resizable=0;points=[];autosize=1;strokeColor=none;fillColor=none;" vertex="1" parent="1">
          <mxGeometry x="80" y="600" width="470" height="30" as="geometry" />
        </mxCell>
        <mxCell id="ciLSwuL3Uhk11_1IPqD2-3" value="&lt;font style=&quot;font-size: 16px;&quot;&gt;第Ⅳ点：P可为红/黑色，N可为P左/右子节点，所以有4种情况。&lt;/font&gt;" style="text;html=1;align=center;verticalAlign=middle;resizable=0;points=[];autosize=1;strokeColor=none;fillColor=none;" vertex="1" parent="1">
          <mxGeometry x="80" y="880" width="470" height="30" as="geometry" />
        </mxCell>
        <mxCell id="ciLSwuL3Uhk11_1IPqD2-4" value="&lt;font style=&quot;font-size: 16px;&quot;&gt;第Ⅴ点：N可为P左/右子节点，所以有2种情况。&lt;/font&gt;" style="text;html=1;align=center;verticalAlign=middle;resizable=0;points=[];autosize=1;strokeColor=none;fillColor=none;" vertex="1" parent="1">
          <mxGeometry x="80" y="1080" width="360" height="30" as="geometry" />
        </mxCell>
      </root>
    </mxGraphModel>
  </diagram>
</mxfile>
